/* XPM */
static char *iconet[]={
	"40 40 5 1",
	"# c #000000",
	"c c #0000ff",
	". c #c0ffff",
	"b c #ff0000",
	"a c #ffff00",
	"........................................",
	"........................................",
	"........................................",
	".##########################.............",
	".#aaaaaaaaaaaaaaaaaaaaaaaa#.............",
	".#aaaaaaaaaaaaaaaaaaaaaaaa#.............",
	".#aaaaaaaaaaaaaaaaaaaaaaaa#.............",
	".#aaaaaaaaaaaaaaaaaaaaaa#####...........",
	".#aaaaaaaaaaaaaaaaaaa###bb#bb##.........",
	".#aaaaaaaaaaaaaaaaaa#bbbbb#bbb##........",
	".#aaaaaaaaaaaaaaaaa##bbbbb#bbbbb#.......",
	".#aaaaaaaaaaaaaaaaa#bbbbbb#bbbbb#.......",
	".#aaaaaaaaaaaaaaaa#bbbbbbb#bbbbb#.......",
	".#aaaaaaaaaaaaaaaa#bbbbbbb#bbbbbb#......",
	".#aaaaaaaaaaaaaaaa#bbbbbbb#bbbbbb#......",
	".##########################bbbbbb#......",
	"..................#bbbbbbbbbbbbbb#......",
	"...................#bbbbbbbbbbbbb#......",
	"...................#bbbbbbbbbbbb#.......",
	".........##........#bbbbbbbbbbb##.......",
	".........#c#........##bbbbbbbbb#........",
	".........#cc##.......##bbbbb###.........",
	"........#ccccc#........#####............",
	"........#cccccc##.......................",
	"........#cccccccc#......................",
	".......#cccccccccc##....................",
	".......#cccccccccccc#...................",
	".......#ccccccccccccc##.................",
	"......#cccccccccccccccc#................",
	"......#ccccccccccccccccc##..............",
	".....#cccccccccccccccccccc#.............",
	".....#ccccccccccccccccccccc##...........",
	".....#ccccccccccccccccccccccc#..........",
	"....#ccccccccccccccccccccccccc##........",
	"....#ccccccccccccccccccccccccccc#.......",
	"....#cccccccccccccccccccccccccccc##.....",
	"...#ccccccccccccccccccccccccccccccc#....",
	"...#cccccccccccccccccccccccccccccccc#...",
	"..####################################..",
	"........................................"};


